<svg width="6366" height="1562" viewBox="0 0 6366 1562" fill="none" xmlns="http://www.w3.org/2000/svg">
<path d="M54 1190V350H433.2C490.8 350 540 359.2 580.8 377.6C621.6 395.2 652.8 420.4 674.4 453.2C696 485.2 706.8 523.6 706.8 568.4C706.8 610 697.6 645.2 679.2 674C661.6 702.8 637.6 725.2 607.2 741.2C576.8 756.4 543.2 765.2 506.4 767.6L526.8 753.2C566.8 754.8 601.6 765.6 631.2 785.6C660.8 804.8 684 830 700.8 861.2C717.6 891.6 726 924.8 726 960.8C726 1007.2 714.8 1047.6 692.4 1082C670.8 1116.4 639.2 1143.2 597.6 1162.4C556 1180.8 505.6 1190 446.4 1190H54ZM259.2 1024.4H410.4C444.8 1024.4 471.2 1016.8 489.6 1001.6C508.8 985.6 518.4 962.8 518.4 933.2C518.4 902.8 508.4 879.6 488.4 863.6C469.2 846.8 442.4 838.4 408 838.4H259.2V1024.4ZM259.2 688.4H393.6C427.2 688.4 452.8 681.2 470.4 666.8C488.8 651.6 498 629.6 498 600.8C498 572 488.8 550 470.4 534.8C452.8 519.6 427.2 512 393.6 512H259.2V688.4ZM755.719 1190V350H960.919V1031.6H1313.72V1190H755.719ZM1668.73 1204.4C1584.73 1204.4 1510.73 1186 1446.73 1149.2C1382.73 1112.4 1332.33 1061.6 1295.53 996.8C1259.53 931.2 1241.53 855.6 1241.53 770C1241.53 684.4 1259.53 609.2 1295.53 544.4C1332.33 478.8 1382.73 427.6 1446.73 390.8C1510.73 354 1584.73 335.6 1668.73 335.6C1752.73 335.6 1826.73 354 1890.73 390.8C1955.53 427.6 2005.93 478.8 2041.93 544.4C2077.93 609.2 2095.93 684.4 2095.93 770C2095.93 855.6 2077.93 931.2 2041.93 996.8C2005.93 1061.6 1955.53 1112.4 1890.73 1149.2C1826.73 1186 1752.73 1204.4 1668.73 1204.4ZM1668.73 1018.4C1714.33 1018.4 1753.13 1008.4 1785.13 988.4C1817.93 967.6 1843.13 938.8 1860.73 902C1878.33 864.4 1887.13 820.4 1887.13 770C1887.13 718.8 1878.33 674.8 1860.73 638C1843.13 601.2 1817.93 572.8 1785.13 552.8C1753.13 532 1714.33 521.6 1668.73 521.6C1623.93 521.6 1585.13 532 1552.33 552.8C1519.53 572.8 1494.33 601.2 1476.73 638C1459.13 674.8 1450.33 718.8 1450.33 770C1450.33 820.4 1459.13 864.4 1476.73 902C1494.33 938.8 1519.53 967.6 1552.33 988.4C1585.13 1008.4 1623.93 1018.4 1668.73 1018.4ZM2132.2 1190V350H2337.4V648.8L2608.6 350H2859.4L2518.6 717.2L2871.4 1190H2620.6L2337.4 813.2V1190H2132.2Z" fill="#F5F6F8"/>
<path d="M3445 1192V492H3863V550H3515V812H3815V870H3515V1192H3445ZM4009.31 1204C3967.98 1204 3933.65 1197 3906.31 1183C3878.98 1168.33 3858.65 1149.33 3845.31 1126C3831.98 1102.67 3825.31 1077.33 3825.31 1050C3825.31 1015.33 3834.31 986.333 3852.31 963C3870.31 939 3895.65 921 3928.31 909C3960.98 897 3998.65 891 4041.31 891H4177.31C4177.31 859.667 4171.98 833 4161.31 811C4151.31 789 4136.65 772.333 4117.31 761C4097.98 749.667 4073.98 744 4045.31 744C4010.65 744 3980.65 753 3955.31 771C3929.98 788.333 3914.31 814 3908.31 848H3834.31C3838.31 812 3850.65 782 3871.31 758C3892.65 733.333 3918.65 715 3949.31 703C3979.98 690.333 4011.98 684 4045.31 684C4091.31 684 4128.98 692.667 4158.31 710C4188.31 727.333 4210.65 751.333 4225.31 782C4239.98 812 4247.31 847 4247.31 887V1192H4183.31L4175.31 1095H4171.31C4164.65 1109 4156.31 1122.67 4146.31 1136C4136.31 1149.33 4124.65 1161 4111.31 1171C4098.65 1181 4083.65 1189 4066.31 1195C4049.65 1201 4030.65 1204 4009.31 1204ZM4016.31 1142C4039.65 1142 4060.98 1137.67 4080.31 1129C4100.31 1119.67 4117.31 1106.67 4131.31 1090C4145.98 1073.33 4157.31 1053.33 4165.31 1030C4173.31 1006 4177.31 979.667 4177.31 951H4046.31C4010.31 951 3981.31 955.333 3959.31 964C3937.98 972.667 3922.31 984.333 3912.31 999C3902.98 1013 3898.31 1029.33 3898.31 1048C3898.31 1066.67 3902.65 1083 3911.31 1097C3920.65 1111 3933.98 1122 3951.31 1130C3969.31 1138 3990.98 1142 4016.31 1142ZM4502.62 1204C4456.62 1204 4414.95 1193.33 4377.62 1172C4340.95 1150 4311.62 1119.67 4289.62 1081C4268.28 1041.67 4257.62 996 4257.62 944C4257.62 891.333 4268.28 845.667 4289.62 807C4311.62 768.333 4340.95 738.333 4377.62 717C4414.95 695 4456.62 684 4502.62 684C4560.62 684 4608.95 699 4647.62 729C4686.95 759 4711.95 798.667 4722.62 848H4652.62C4645.28 814.667 4627.62 789 4599.62 771C4572.28 753 4539.95 744 4502.62 744C4473.28 744 4445.28 751.667 4418.62 767C4391.95 781.667 4370.28 803.667 4353.62 833C4337.62 862.333 4329.62 899.333 4329.62 944C4329.62 977.333 4334.28 1006.67 4343.62 1032C4353.62 1056.67 4366.62 1077.67 4382.62 1095C4399.28 1111.67 4417.95 1124.33 4438.62 1133C4459.28 1141 4480.62 1145 4502.62 1145C4527.28 1145 4549.95 1141 4570.62 1133C4591.95 1124.33 4609.62 1112.33 4623.62 1097C4638.28 1081.67 4647.95 1062.67 4652.62 1040H4722.62C4712.62 1088 4687.95 1127.33 4648.62 1158C4609.28 1188.67 4560.62 1204 4502.62 1204ZM4753.27 1192V696H4823.27V1192H4753.27ZM4788.27 583C4774.27 583 4762.27 578 4752.27 568C4742.27 558 4737.27 545.667 4737.27 531C4737.27 515.667 4741.93 503.333 4751.27 494C4761.27 484.667 4773.6 480 4788.27 480C4802.27 480 4814.27 484.667 4824.27 494C4834.27 503.333 4839.27 516 4839.27 532C4839.27 546 4834.27 558 4824.27 568C4814.27 578 4802.27 583 4788.27 583ZM4873.91 1192V492H4943.91V1192H4873.91ZM4995.06 1192V696H5065.06V1192H4995.06ZM5030.06 583C5016.06 583 5004.06 578 4994.06 568C4984.06 558 4979.06 545.667 4979.06 531C4979.06 515.667 4983.73 503.333 4993.06 494C5003.06 484.667 5015.4 480 5030.06 480C5044.06 480 5056.06 484.667 5066.06 494C5076.06 503.333 5081.06 516 5081.06 532C5081.06 546 5076.06 558 5066.06 568C5056.06 578 5044.06 583 5030.06 583ZM5299.7 1192C5271.04 1192 5246.37 1187.67 5225.7 1179C5205.04 1169.67 5189.04 1154.33 5177.7 1133C5167.04 1111.67 5161.7 1083 5161.7 1047V756H5075.7V696H5161.7L5171.7 581H5231.7V696H5381.7V756H5231.7V1047C5231.7 1080.33 5238.37 1103 5251.7 1115C5265.7 1126.33 5289.7 1132 5323.7 1132H5372.7V1192H5299.7ZM5393.11 1192V696H5463.11V1192H5393.11ZM5428.11 583C5414.11 583 5402.11 578 5392.11 568C5382.11 558 5377.11 545.667 5377.11 531C5377.11 515.667 5381.78 503.333 5391.11 494C5401.11 484.667 5413.44 480 5428.11 480C5442.11 480 5454.11 484.667 5464.11 494C5474.11 503.333 5479.11 516 5479.11 532C5479.11 546 5474.11 558 5464.11 568C5454.11 578 5442.11 583 5428.11 583ZM5733.75 1204C5687.08 1204 5645.75 1193.33 5609.75 1172C5573.75 1150 5545.42 1119.67 5524.75 1081C5504.08 1041.67 5493.75 995.667 5493.75 943C5493.75 890.333 5503.75 844.667 5523.75 806C5544.42 767.333 5573.08 737.333 5609.75 716C5646.42 694.667 5688.42 684 5735.75 684C5783.75 684 5824.75 695 5858.75 717C5892.75 738.333 5918.75 766.333 5936.75 801C5954.75 835.667 5963.75 873 5963.75 913C5963.75 919.667 5963.75 926.667 5963.75 934C5963.75 941.333 5963.42 949.667 5962.75 959H5547.75V899H5895.75C5893.75 850.333 5877.42 812.333 5846.75 785C5816.08 757.667 5778.08 744 5732.75 744C5702.75 744 5674.75 750.667 5648.75 764C5622.75 777.333 5601.75 797 5585.75 823C5569.75 848.333 5561.75 880 5561.75 918V945C5561.75 989.667 5570.08 1027 5586.75 1057C5603.42 1086.33 5624.75 1108.33 5650.75 1123C5677.42 1137 5705.08 1144 5733.75 1144C5771.08 1144 5802.42 1135.33 5827.75 1118C5853.08 1100.67 5871.08 1076.67 5881.75 1046H5949.75C5941.75 1076 5928.08 1103 5908.75 1127C5889.42 1151 5865.08 1170 5835.75 1184C5806.42 1197.33 5772.42 1204 5733.75 1204ZM6161.4 1204C6122.73 1204 6088.07 1197.33 6057.4 1184C6027.4 1170.67 6002.73 1151.67 5983.4 1127C5964.73 1102.33 5953.07 1072.67 5948.4 1038H6021.4C6025.4 1056.67 6033.07 1074 6044.4 1090C6056.4 1105.33 6072.4 1118 6092.4 1128C6112.4 1137.33 6136.07 1142 6163.4 1142C6188.73 1142 6209.4 1138.33 6225.4 1131C6241.4 1123.67 6253.4 1113.67 6261.4 1101C6269.4 1088.33 6273.4 1074.33 6273.4 1059C6273.4 1037.67 6268.07 1021.33 6257.4 1010C6247.4 998 6232.73 989 6213.4 983C6194.07 977 6170.73 971.333 6143.4 966C6123.4 962 6103.4 957 6083.4 951C6063.4 944.333 6045.07 936 6028.4 926C6011.73 915.333 5998.4 902 5988.4 886C5978.4 870 5973.4 851 5973.4 829C5973.4 800.333 5980.4 775.333 5994.4 754C6008.4 732 6028.4 715 6054.4 703C6081.07 690.333 6112.07 684 6147.4 684C6198.07 684 6239.73 697 6272.4 723C6305.73 748.333 6325.07 785.667 6330.4 835H6259.4C6256.73 807.667 6245.4 786 6225.4 770C6205.4 754 6178.73 746 6145.4 746C6113.4 746 6088.73 753 6071.4 767C6054.07 780.333 6045.4 798.667 6045.4 822C6045.4 836 6050.07 848 6059.4 858C6069.4 868 6083.4 876.667 6101.4 884C6120.07 891.333 6141.73 897.667 6166.4 903C6196.4 909 6224.73 917 6251.4 927C6278.73 936.333 6301.07 950.667 6318.4 970C6336.4 988.667 6345.4 1016 6345.4 1052C6346.07 1081.33 6338.73 1107.67 6323.4 1131C6308.73 1153.67 6287.4 1171.67 6259.4 1185C6232.07 1197.67 6199.4 1204 6161.4 1204Z" fill="#F5F6F8"/>
<line x1="3150" y1="400" x2="3150" y2="1200" stroke="white" stroke-width="100"/>
</svg>
